<svg width="44" height="44" viewBox="0 0 44 44" fill="none" xmlns="http://www.w3.org/2000/svg">
<path d="M21.7296 43.4592C9.72807 43.4592 0 33.7311 0 21.7296C0 9.72807 9.72807 0 21.7296 0C33.7311 0 43.4592 9.72807 43.4592 21.7296C43.4592 33.7311 33.7311 43.4592 21.7296 43.4592ZM16.4547 19.5621L21.7296 14.2872L27.0072 19.5648L30.0765 16.4955L21.7296 8.1486L13.3854 16.4928L16.4547 19.5621ZM8.1486 21.7296L11.2179 24.7989L14.2872 21.7296L11.2179 18.6603L8.1486 21.7296ZM16.4547 23.8971L13.3814 26.9623L13.3854 26.9664L21.7296 35.3106L30.0765 26.9637L27.0072 23.893L21.7296 29.172L16.4547 23.8971ZM29.172 21.7296L32.2413 24.7989L35.3106 21.7296L32.2413 18.6603L29.172 21.7296ZM24.8424 21.7269L21.7296 18.6141L19.4276 20.9147L19.1628 21.1796L18.6182 21.7255L18.6128 21.7296L18.6182 21.7337L21.7282 24.8451L24.8437 21.7309L24.8451 21.7296L24.8424 21.7269Z" fill="black"/>
</svg>
