<svg width="34" height="35" viewBox="0 0 34 35" fill="none" xmlns="http://www.w3.org/2000/svg">
<path d="M15.3456 0C6.87125 0 0 6.86981 0 15.3456C0 23.8215 6.87125 30.6913 15.3471 30.6913C17.6001 30.6913 19.8301 30.27 23.1083 30.2456C26.0314 30.2456 29.2434 31.2722 32.7675 34.3951C33.124 34.7071 33.5928 34.3059 33.2808 33.9263C29.8229 29.5324 26.6094 28.7071 23.3988 27.994C19.4736 27.1227 17.4664 24.9372 16.0602 22.5059C15.7928 22.0156 15.6576 22.1047 15.6361 22.7302C15.6102 23.6489 15.6792 24.5677 15.8374 25.4735H15.3686C12.6772 25.4712 10.0966 24.401 8.19342 22.4979C6.29026 20.5947 5.22006 18.0141 5.21778 15.3226C5.22082 12.6318 6.2914 10.0521 8.19452 8.14978C10.0976 6.24747 12.6778 5.17798 15.3686 5.17608C16.801 5.17683 18.217 5.48054 19.5237 6.06726C20.8303 6.65398 21.9981 7.51044 22.9504 8.58041C23.9026 9.65039 24.6178 10.9097 25.0489 12.2756C25.4801 13.6415 25.6174 15.0832 25.4519 16.506C24.6928 16.3722 23.242 16.3507 22.2169 16.4398C21.8373 16.4844 21.8819 16.6627 22.1723 16.7087C25.5181 17.3327 27.8157 19.4074 28.3505 23.1773C28.3721 23.2665 28.4843 23.2881 28.5288 23.2205C29.9436 20.8377 30.691 18.1182 30.6927 15.3471C30.6927 6.86981 23.8229 0 15.3456 0ZM26.3362 21.6777C26.2488 21.6681 26.1605 21.6844 26.0823 21.7245C26.0041 21.7646 25.9394 21.8269 25.8962 21.9035C25.7179 22.2169 25.8531 22.8179 26.1867 23.3542C26.5202 23.8891 26.8337 24.1565 27.058 24.1565C27.2808 24.1565 27.4807 23.8891 27.3915 23.1975C27.3484 22.8179 27.1241 21.9495 26.5432 21.7252C26.4757 21.695 26.398 21.6921 26.3362 21.6777ZM23.1529 24.2471C22.8409 24.2471 22.595 24.3563 22.4383 24.5576C22.0372 25.0479 22.2155 25.9408 22.8409 26.4771C23.1083 26.7215 23.5109 26.8552 23.8905 26.8552C24.0627 26.8597 24.2338 26.8262 24.3915 26.7572C24.5493 26.6881 24.69 26.5851 24.8035 26.4555C25.1615 25.9638 24.9617 25.2938 24.2686 24.7144C23.9121 24.4024 23.5109 24.2471 23.1529 24.2471Z" fill="black"/>
</svg>
