<svg width="62" height="62" viewBox="0 0 62 62" fill="none" xmlns="http://www.w3.org/2000/svg">
<g id="flash-off">
<path id="Icon" d="M36.5498 47.3278L31.2413 55.0761C30.3297 56.3899 28.1848 55.8 28.1848 54.2182L28.158 39.0968C28.158 37.3541 26.6835 35.96 24.8603 35.9332L14.0555 35.7991C12.7418 35.7723 11.9643 34.405 12.6882 33.3594L17.0584 27.0052M21.5894 20.3293L30.7587 6.92385C31.6703 5.61012 33.8151 6.19997 33.8151 7.78181L33.8419 22.9031C33.8419 24.6459 35.3165 26.04 37.1396 26.0668L47.9444 26.2008C49.2582 26.2276 50.0357 27.595 49.3118 28.6406L40.8932 40.92M52.7004 52.6993L9.30038 9.29929" stroke="black" stroke-width="3" stroke-linecap="round" stroke-linejoin="round"/>
</g>
</svg>
