<svg width="50" height="50" fill="none" xmlns="http://www.w3.org/2000/svg"><path fill-rule="evenodd" clip-rule="evenodd" d="M14.693.15C17.36.027 18.21 0 25 0c6.79 0 7.64.03 10.304.15 2.664.12 4.482.545 6.073 1.161a12.3 12.3 0 014.427 2.887 12.21 12.21 0 012.882 4.425c.618 1.59 1.041 3.409 1.164 6.068.123 2.67.15 3.52.15 10.309 0 6.79-.03 7.64-.15 10.307-.12 2.659-.546 4.477-1.164 6.068a12.263 12.263 0 01-2.882 4.43 12.258 12.258 0 01-4.427 2.881c-1.59.618-3.409 1.041-6.068 1.164-2.668.123-3.518.15-10.309.15-6.79 0-7.64-.03-10.307-.15-2.659-.12-4.477-.546-6.068-1.164a12.266 12.266 0 01-4.43-2.882 12.254 12.254 0 01-2.884-4.427C.695 39.787.273 37.968.15 35.31.027 32.64 0 31.79 0 25c0-6.79.03-7.64.15-10.305.12-2.663.545-4.481 1.161-6.072a12.264 12.264 0 012.887-4.428 12.255 12.255 0 014.425-2.884C10.213.695 12.032.273 14.69.15h.002zm20.41 4.5c-2.637-.12-3.428-.145-10.103-.145s-7.466.025-10.102.145c-2.439.111-3.762.518-4.643.861-1.166.455-2 .994-2.875 1.869a7.755 7.755 0 00-1.869 2.875c-.343.881-.75 2.204-.861 4.643-.12 2.636-.145 3.427-.145 10.102 0 6.675.025 7.466.145 10.102.111 2.439.518 3.762.861 4.644A7.762 7.762 0 007.38 42.62a7.76 7.76 0 002.875 1.869c.881.343 2.204.75 4.643.861 2.636.12 3.425.145 10.102.145 6.677 0 7.466-.024 10.102-.145 2.439-.111 3.762-.518 4.644-.861 1.165-.455 2-.993 2.874-1.868a7.762 7.762 0 001.869-2.876c.343-.881.75-2.204.861-4.643.12-2.636.145-3.427.145-10.102 0-6.675-.024-7.466-.145-10.102-.111-2.439-.518-3.762-.861-4.643-.455-1.166-.993-2-1.868-2.875a7.758 7.758 0 00-2.876-1.869c-.881-.343-2.204-.75-4.643-.861zM21.806 32.707a8.338 8.338 0 009.09-13.605 8.34 8.34 0 00-12.077 11.5 8.34 8.34 0 002.987 2.105zm-5.893-16.793a12.852 12.852 0 0120.958 4.168 12.85 12.85 0 11-20.958-4.168zm24.786-1.85a3.037 3.037 0 00-.943-5.026 3.039 3.039 0 10.943 5.026z" fill="url(#paint0_linear_35_67)"/><defs><linearGradient id="paint0_linear_35_67" x1="25" y1="0" x2="25" y2="50" gradientUnits="userSpaceOnUse"><stop stop-color="#F000D8"/><stop offset="1" stop-color="#4967FF"/></linearGradient></defs></svg>