<svg width="50" height="50" fill="none" xmlns="http://www.w3.org/2000/svg"><path d="M25 50c13.807 0 25-11.193 25-25S38.807 0 25 0 0 11.193 0 25s11.193 25 25 25z" fill="url(#paint0_linear_35_65)"/><path fill-rule="evenodd" clip-rule="evenodd" d="M11.316 24.736c7.289-3.175 12.148-5.268 14.58-6.28 6.943-2.888 8.385-3.39 9.326-3.406.206-.004.669.048.968.29.253.206.323.483.356.678.033.194.075.638.042.984-.376 3.953-2.004 13.546-2.832 17.974-.35 1.873-1.04 2.501-1.709 2.563-1.452.133-2.554-.96-3.96-1.881-2.2-1.443-3.444-2.34-5.58-3.748-2.468-1.627-.868-2.52.539-3.982.368-.382 6.765-6.2 6.889-6.728.015-.066.03-.312-.117-.442-.146-.13-.362-.085-.517-.05-.221.05-3.736 2.373-10.545 6.97-.998.685-1.902 1.019-2.712 1.001-.892-.02-2.61-.505-3.886-.92-1.565-.508-2.81-.777-2.701-1.642.056-.45.676-.91 1.86-1.38z" fill="#fff"/><defs><linearGradient id="paint0_linear_35_65" x1="25" y1="0" x2="25" y2="49.629" gradientUnits="userSpaceOnUse"><stop stop-color="#F000D8"/><stop offset="1" stop-color="#4967FF"/></linearGradient></defs></svg>